<svg width="189" height="189" viewBox="0 0 189 189" fill="none" xmlns="http://www.w3.org/2000/svg">
<path fill-rule="evenodd" clip-rule="evenodd" d="M65.9769 93.5021C64.2059 101.119 58.4243 109.281 60.2865 116.337C61.293 115.69 93.8967 100.346 93.922 100.342C98.6952 99.5826 121.544 113.329 129.102 115.465C133.366 114.561 129.879 107.862 128.712 105.116C126.987 101.055 125.295 97.0401 124.36 92.6608C122.017 86.8959 117.377 76.0203 120.493 70.0071C122.686 65.7736 133.051 57.2489 136.687 55.8894C141.361 65.8261 151.335 96.5662 153.208 107.415C153.362 114.208 152.041 114.566 148.006 118.754C142.293 122.247 128.761 135.352 124.276 136.676C114.632 139.523 102.326 124.627 95.2758 124.689C87.984 124.754 76.1454 139.729 66.3216 136.585C61.4589 135.028 48.5473 122.265 42.6414 118.695C38.2995 113.916 37.4532 115.337 37.3077 107.438C40.3865 92.7976 48.2018 69.9776 53.9395 55.9691C57.5463 56.7814 67.926 66.0847 70.0894 69.9341C73.471 75.9492 68.3486 87.5104 65.9769 93.5021V93.5021ZM94.2406 0C146.288 0 188.481 42.1931 188.481 94.2406C188.481 146.288 146.288 188.481 94.2406 188.481C42.1931 188.481 0 146.288 0 94.2406C0 42.1931 42.1931 0 94.2406 0V0Z" fill="#34C2F1"/>
<path fill-rule="evenodd" clip-rule="evenodd" d="M60.2865 116.337C57.7368 117.101 53.9766 118.237 51.3986 118.515C47.8016 118.902 44.9828 117.797 42.6414 118.695C48.5473 122.265 61.4589 135.028 66.3216 136.585C76.1454 139.729 87.984 124.754 95.2758 124.689C102.326 124.627 114.632 139.523 124.276 136.676C128.761 135.352 142.293 122.247 148.006 118.754C144.198 117.229 135.699 119.765 129.102 115.465C121.544 113.329 98.6952 99.5826 93.922 100.342C93.8967 100.346 61.293 115.69 60.2865 116.337V116.337Z" fill="#544B4B"/>
<path fill-rule="evenodd" clip-rule="evenodd" d="M37.3077 107.438C38.4771 107.164 50.7908 101.443 51.606 100.897C54.9494 98.6589 53.9184 98.8524 58.0894 97.0099C61.3463 95.5714 61.3523 94.1265 65.9769 93.5021C68.3486 87.5104 73.471 75.9492 70.0894 69.9341C67.926 66.0847 57.5463 56.7814 53.9395 55.9691C48.2018 69.9776 40.3865 92.7976 37.3077 107.438V107.438Z" fill="#544B4B"/>
<path fill-rule="evenodd" clip-rule="evenodd" d="M124.36 92.6608C127.97 92.9839 128.905 94.2932 131.535 96.2385C134.2 98.2095 135.852 98.4801 138.973 99.9432C143.938 102.27 148.417 105.277 153.208 107.415C151.335 96.5662 141.361 65.8261 136.687 55.8894C133.051 57.2489 122.686 65.7736 120.493 70.0071C117.377 76.0203 122.017 86.8959 124.36 92.6608V92.6608Z" fill="#544B4B"/>
<path fill-rule="evenodd" clip-rule="evenodd" d="M129.102 115.465C135.699 119.765 144.198 117.229 148.006 118.754C152.041 114.566 153.362 114.208 153.208 107.415C148.417 105.277 143.938 102.27 138.973 99.9432C135.852 98.4801 134.2 98.2095 131.535 96.2385C128.905 94.2932 127.97 92.9839 124.36 92.6608C125.295 97.0401 126.987 101.055 128.712 105.116C129.879 107.862 133.366 114.561 129.102 115.465V115.465Z" fill="#544B4B"/>
<path fill-rule="evenodd" clip-rule="evenodd" d="M37.3077 107.438C37.4532 115.337 38.2995 113.916 42.6414 118.695C44.9828 117.797 47.8016 118.902 51.3985 118.515C53.9766 118.237 57.7368 117.101 60.2865 116.337C58.4243 109.281 64.2059 101.119 65.9769 93.5021C61.3523 94.1265 61.3463 95.5714 58.0894 97.0099C53.9184 98.8524 54.9494 98.6589 51.606 100.897C50.7908 101.443 38.4771 107.164 37.3077 107.438V107.438Z" fill="#544B4B"/>
</svg>
