<?xml version="1.0" encoding="UTF-8"?>
<!DOCTYPE svg PUBLIC "-//W3C//DTD SVG 1.1//EN" "http://www.w3.org/Graphics/SVG/1.1/DTD/svg11.dtd">
<!-- Creator: CorelDRAW -->
<svg xmlns="http://www.w3.org/2000/svg" xml:space="preserve" width="49.869mm" height="49.869mm" version="1.1" style="shape-rendering:geometricPrecision; text-rendering:geometricPrecision; image-rendering:optimizeQuality; fill-rule:evenodd; clip-rule:evenodd"
viewBox="0 0 4986.9 4986.9"
 xmlns:xlink="http://www.w3.org/1999/xlink"
 xmlns:xodm="http://www.corel.com/coreldraw/odm/2003">
 <defs>
  <style type="text/css">
   <![CDATA[
    .fil0 {fill:#34C2F1}
    .fil3 {fill:#B4B6B9}
    .fil4 {fill:#B5B7B9}
    .fil2 {fill:#E2E3E4}
    .fil1 {fill:#FEFEFE}
   ]]>
  </style>
 </defs>
 <g id="Camada_x0020_1">
  <metadata id="CorelCorpID_0Corel-Layer"/>
  <g id="_2009382323136">
   <path class="fil0" d="M1741.42 2478.13c-46.86,201.52 -199.83,417.49 -150.56,604.18 26.63,-17.13 889.27,-423.1 889.94,-423.21 126.29,-20.09 730.83,343.62 930.81,400.12 112.82,-23.92 20.54,-201.16 -10.33,-273.81 -45.63,-107.45 -90.39,-213.67 -115.13,-329.54 -62.01,-152.53 -184.76,-440.28 -102.33,-599.38 58.03,-112.01 332.26,-337.56 428.48,-373.53 123.65,262.91 387.55,1076.24 437.1,1363.27 4.08,179.74 -30.87,189.21 -137.62,300.02 -151.16,92.42 -509.21,439.15 -627.86,474.18 -255.18,75.33 -580.77,-318.78 -767.3,-317.14 -192.93,1.72 -506.16,397.93 -766.08,314.75 -128.66,-41.2 -470.28,-378.9 -626.54,-473.36 -114.88,-126.43 -137.27,-88.84 -141.12,-297.84 81.46,-387.35 288.24,-991.13 440.05,-1361.77 95.43,21.49 370.06,267.64 427.3,369.49 89.47,159.15 -46.06,465.04 -108.81,623.57zm747.81 -2473.91c1377.09,0 2493.45,1116.36 2493.45,2493.45 0,1377.09 -1116.36,2493.45 -2493.45,2493.45 -1377.09,0 -2493.45,-1116.36 -2493.45,-2493.45 0,-1377.09 1116.36,-2493.45 2493.45,-2493.45z"/>
   <path class="fil1" d="M1590.86 3082.31c-67.46,20.21 -166.95,50.26 -235.16,57.61 -95.17,10.25 -169.75,-19 -231.7,4.76 156.26,94.46 497.88,432.16 626.54,473.36 259.92,83.18 573.15,-313.03 766.08,-314.75 186.53,-1.64 512.12,392.47 767.3,317.14 118.65,-35.03 476.7,-381.76 627.86,-474.18 -100.77,-40.35 -325.63,26.74 -500.17,-87.03 -199.98,-56.5 -804.52,-420.21 -930.81,-400.12 -0.67,0.11 -863.31,406.08 -889.94,423.21z"/>
   <path class="fil2" d="M982.88 2846.84c30.94,-7.25 356.74,-158.61 378.31,-173.06 88.46,-59.21 61.18,-54.09 171.54,-102.84 86.17,-38.06 86.33,-76.29 208.69,-92.81 62.75,-158.53 198.28,-464.42 108.81,-623.57 -57.24,-101.85 -331.87,-348 -427.3,-369.49 -151.81,370.64 -358.59,974.42 -440.05,1361.77z"/>
   <path class="fil2" d="M3286.15 2455.87c95.51,8.55 120.23,43.19 189.82,94.66 70.52,52.15 114.24,59.31 196.81,98.02 131.35,61.57 249.86,141.13 376.62,197.68 -49.55,-287.03 -313.45,-1100.36 -437.1,-1363.27 -96.22,35.97 -370.45,261.52 -428.48,373.53 -82.43,159.1 40.32,446.85 102.33,599.38z"/>
   <path class="fil3" d="M3411.61 3059.22c174.54,113.77 399.4,46.68 500.17,87.03 106.75,-110.81 141.7,-120.28 137.62,-300.02 -126.76,-56.55 -245.27,-136.11 -376.62,-197.68 -82.57,-38.71 -126.29,-45.87 -196.81,-98.02 -69.59,-51.47 -94.31,-86.11 -189.82,-94.66 24.74,115.87 69.5,222.09 115.13,329.54 30.87,72.65 123.15,249.89 10.33,273.81z"/>
   <path class="fil4" d="M982.88 2846.84c3.85,209 26.24,171.41 141.12,297.84 61.95,-23.76 136.53,5.49 231.7,-4.76 68.21,-7.35 167.7,-37.4 235.16,-57.61 -49.27,-186.69 103.7,-402.66 150.56,-604.18 -122.36,16.52 -122.52,54.75 -208.69,92.81 -110.36,48.75 -83.08,43.63 -171.54,102.84 -21.57,14.45 -347.37,165.81 -378.31,173.06z"/>
  </g>
 </g>
</svg>
