<svg width="106" height="79" viewBox="0 0 106 79" fill="none" xmlns="http://www.w3.org/2000/svg">
<path fill-rule="evenodd" clip-rule="evenodd" d="M21.0107 58.5522C16.6056 61.3513 10.0834 60.7489 5.10679 60.5563C7.19824 63.2405 24.1692 77.3458 26.9641 78.1999C35.663 80.8594 47.099 65.9807 53.3055 66.2507C59.6035 66.5244 70.9072 81.1139 79.7156 77.6713C81.7207 76.8875 99.2115 61.9352 100.829 59.8672C97.0347 60.157 95.4642 60.6266 91.4968 60.0112C90.7149 59.8898 88.1594 59.4776 87.6162 59.3002C83.6789 58.0164 85.9927 59.1765 85.0092 57.4354C81.3993 59.7303 57.693 43.162 53.1922 43.0418C49.601 42.9459 40.937 49.0582 37.3984 51.0303C32.0838 53.9918 26.6517 56.3016 21.0107 58.5522Z" fill="white"/>
<path fill-rule="evenodd" clip-rule="evenodd" d="M5.10676 60.5563C10.0834 60.7489 16.6056 61.3513 21.0107 58.5522C19.1501 53.1072 22.8316 47.4625 24.4601 42.2003C28.6594 28.6303 34.4335 18.4066 26.8193 10.5679C23.782 7.44101 19.0153 3.42366 15.4606 0.590296C13.4258 3.06592 6.93625 25.7223 5.40992 30.6805C2.87419 38.9172 -4.45378 55.4038 5.10676 60.5563Z" fill="#DCDCDC"/>
<path fill-rule="evenodd" clip-rule="evenodd" d="M85.0092 57.4354C85.9927 59.1765 83.6789 58.0164 87.6162 59.3002C88.1594 59.4776 90.7149 59.8898 91.4968 60.0112C95.4642 60.6267 97.0346 60.157 100.829 59.8672C110.667 56.894 102.109 36.3356 100.126 30.0903C98.5663 25.1806 91.5825 2.64341 89.7131 0.101453C86.7705 2.24423 81.1908 7.28075 78.7113 9.7981C73.8124 14.7715 74.1026 18.9907 75.9163 25.5801C77.6046 31.7132 86.432 52.521 85.0092 57.4354Z" fill="#DCDCDC"/>
</svg>
