<?xml version="1.0" encoding="UTF-8"?>
<!DOCTYPE svg PUBLIC "-//W3C//DTD SVG 1.1//EN" "http://www.w3.org/Graphics/SVG/1.1/DTD/svg11.dtd">
<!-- Creator: CorelDRAW -->
<svg xmlns="http://www.w3.org/2000/svg" xml:space="preserve" width="210mm" height="297mm" version="1.1" style="shape-rendering:geometricPrecision; text-rendering:geometricPrecision; image-rendering:optimizeQuality; fill-rule:evenodd; clip-rule:evenodd"
viewBox="0 0 21000 29700"
 xmlns:xlink="http://www.w3.org/1999/xlink"
 xmlns:xodm="http://www.corel.com/coreldraw/odm/2003">
 <defs>
  <style type="text/css">
   <![CDATA[
    .fil0 {fill:#37BEE1}
    .fil1 {fill:#5B8FBA}
   ]]>
  </style>
 </defs>
 <g id="Camada_x0020_1">
  <metadata id="CorelCorpID_0Corel-Layer"/>
  <g id="_2557777891072">
   <path class="fil0" d="M9248.09 11062.29c-195.05,122.8 -482.46,94.19 -701.84,84.2 91.44,119.6 835.65,749.84 958.64,788.52 382.79,120.43 891.36,-535.8 1164.95,-522.02 277.62,13.97 771.8,664.02 1161.19,513.98 88.64,-34.16 864.21,-691.89 936.12,-783.09 -167.38,11.74 -236.76,32.1 -411.52,3.66 -34.44,-5.61 -147,-24.63 -170.9,-32.65 -173.24,-58.06 -71.55,-5.96 -114.41,-83.43 -159.84,100.68 -1200.32,-640.71 -1398.74,-647.35 -158.32,-5.3 -542.12,263.13 -698.72,349.52 -235.2,129.73 -475.39,230.54 -724.77,328.66z"/>
   <path class="fil1" d="M8546.25 11146.49c219.38,9.99 506.79,38.6 701.84,-84.2 -80.46,-241.92 83.51,-491.07 156.84,-723.87 189.1,-600.33 446.67,-1051.86 113.21,-1401.57 -133.02,-139.5 -342.03,-318.98 -497.95,-445.62 -90.44,109.15 -383.16,1111.61 -451.9,1330.96 -114.2,364.39 -442.1,1093.1 -22.04,1324.3z"/>
   <path class="fil1" d="M12070.32 11031.46c42.86,77.47 -58.83,25.37 114.41,83.43 23.9,8.02 136.46,27.04 170.9,32.65 174.76,28.44 244.14,8.08 411.52,-3.66 434.65,-128.93 63.28,-1042.78 -22.36,-1320.21 -67.33,-218.1 -368.73,-1219.21 -450.42,-1332.44 -130.37,94.13 -377.86,315.77 -487.92,426.64 -217.45,219.04 -205.88,406.16 -127.82,698.8 72.66,272.37 455.85,1197.35 391.69,1414.79z"/>
  </g>
 </g>
</svg>
